<svg aria-hidden="true" style="position: absolute; width: 0; height: 0; overflow: hidden;" version="1.1" xmlns="http://www.w3.org/2000/svg" xmlns:xlink="http://www.w3.org/1999/xlink">
<defs>
<symbol id="icon-bookmark" viewBox="0 0 32 32">
<path d="M24 4v24l-8-8-8 8v-24h16z"></path>
</symbol>
<symbol id="icon-glass" viewBox="0 0 32 32">
<path d="M27.786 5.618c0.236-0.301 0.28-0.711 0.113-1.055s-0.517-0.563-0.899-0.563h-22c-0.383 0-0.732 0.219-0.899 0.563s-0.123 0.754 0.113 1.055l9.786 12.455v11.927h-3c-0.552 0-1 0.448-1 1s0.448 1 1 1h10c0.552 0 1-0.448 1-1s-0.448-1-1-1h-3v-11.927l9.786-12.455zM24.943 6l-3.143 4h-11.599l-3.143-4h17.885z"></path>
</symbol>
<symbol id="icon-star-full" viewBox="0 0 32 32">
<path d="M32 12.408l-11.056-1.607-4.944-10.018-4.944 10.018-11.056 1.607 8 7.798-1.889 11.011 9.889-5.199 9.889 5.199-1.889-11.011 8-7.798z"></path>
</symbol>
<symbol id="icon-star-empty" viewBox="0 0 32 32">
<path d="M32 12.408l-11.056-1.607-4.944-10.018-4.944 10.018-11.056 1.607 8 7.798-1.889 11.011 9.889-5.199 9.889 5.199-1.889-11.011 8-7.798zM16 23.547l-6.983 3.671 1.334-7.776-5.65-5.507 7.808-1.134 3.492-7.075 3.492 7.075 7.807 1.134-5.65 5.507 1.334 7.776-6.983-3.671z"></path>
</symbol>
<symbol id="icon-location" viewBox="0 0 32 32">
<path d="M15.938 32c0 0-9.938-14.062-9.938-20.062 0-11.813 9.938-11.938 9.938-11.938s10.062 0.125 10.062 11.875c0 6.187-10.062 20.125-10.062 20.125zM16 6c-2.209 0-4 1.791-4 4s1.791 4 4 4 4-1.791 4-4-1.791-4-4-4z"></path>
</symbol>
<symbol id="icon-bed" viewBox="0 0 32 28">
<path d="M4 16h27c0.547 0 1 0.453 1 1v7h-4v-4h-24v4h-4v-19c0-0.547 0.453-1 1-1h2c0.547 0 1 0.453 1 1v11zM13 11c0-2.203-1.797-4-4-4s-4 1.797-4 4 1.797 4 4 4 4-1.797 4-4zM32 15v-1c0-3.313-2.688-6-6-6h-11c-0.547 0-1 0.453-1 1v6h18z"></path>
</symbol>
<symbol id="icon-bus" viewBox="0 0 24 28">
<path d="M6 19c0-1.109-0.891-2-2-2s-2 0.891-2 2 0.891 2 2 2 2-0.891 2-2zM22 19c0-1.109-0.891-2-2-2s-2 0.891-2 2 0.891 2 2 2 2-0.891 2-2zM21.281 12.812l-1.125-6c-0.094-0.469-0.5-0.812-0.984-0.812h-14.344c-0.484 0-0.891 0.344-0.984 0.812l-1.125 6c-0.109 0.625 0.359 1.188 0.984 1.188h16.594c0.625 0 1.094-0.562 0.984-1.188zM17.75 3.25c0-0.422-0.328-0.75-0.75-0.75h-10c-0.406 0-0.75 0.328-0.75 0.75s0.344 0.75 0.75 0.75h10c0.422 0 0.75-0.328 0.75-0.75zM24 14.578v9.422h-2v2c0 1.109-0.891 2-2 2s-2-0.891-2-2v-2h-12v2c0 1.109-0.891 2-2 2s-2-0.891-2-2v-2h-2v-9.422c0-1.281 0.109-2.234 0.391-3.484l1.609-7.094c0.297-2.5 4.672-4 10-4s9.703 1.5 10 4l1.641 7.094c0.281 1.25 0.359 2.203 0.359 3.484z"></path>
</symbol>
<symbol id="icon-plane" viewBox="0 0 32 32">
<path d="M15.521 3.91c0.828 0 1.5 0.672 1.5 1.5v7.75l10 6.25v2.688l-10-3.375v5.25l2.039 2.029-0.001 2.084-3.538-1.176-3.487 1.18 0.015-2.189 1.91-1.865 0.017-5.312-9.997 3.436 0.021-2.75 10.007-6.313 0.016-7.688c-0.002-0.827 0.67-1.499 1.498-1.499z"></path>
</symbol>
<symbol id="icon-star-full" viewBox="0 0 32 32">
<path d="M32 12.408l-11.056-1.607-4.944-10.018-4.944 10.018-11.056 1.607 8 7.798-1.889 11.011 9.889-5.199 9.889 5.199-1.889-11.011 8-7.798z"></path>
</symbol>
<symbol id="icon-gmail" viewBox="0 0 32 32">
<path fill="#d14836" style="fill: var(--color1, #d14836)" d="M32 6v20c0 1.133-0.867 2-2 2h-2v-18.151l-12 8.617-12-8.617v18.151h-2c-1.135 0-2-0.867-2-2v-20c0-0.567 0.216-1.067 0.575-1.424 0.359-0.363 0.86-0.576 1.425-0.576h0.667l13.333 9.667 13.333-9.667h0.667c0.567 0 1.067 0.216 1.425 0.576 0.36 0.357 0.575 0.857 0.575 1.424z"></path>
</symbol>
<symbol id="icon-linkedin" viewBox="0 0 32 32">
<path fill="#0077b5" style="fill: var(--color2, #0077b5)" d="M27.263 27.269h-4.739v-7.425c0-1.771-0.036-4.049-2.469-4.049-2.471 0-2.848 1.927-2.848 3.919v7.556h-4.739v-15.269h4.552v2.081h0.061c0.636-1.2 2.183-2.467 4.493-2.467 4.801 0 5.689 3.16 5.689 7.273zM7.116 9.911c-1.525 0-2.751-1.235-2.751-2.753 0-1.517 1.227-2.751 2.751-2.751 1.52 0 2.752 1.233 2.752 2.751 0 1.519-1.233 2.753-2.752 2.753zM9.492 27.269h-4.752v-15.269h4.752zM29.633 0h-27.272c-1.305 0-2.361 1.032-2.361 2.305v27.389c0 1.275 1.056 2.305 2.361 2.305h27.268c1.304 0 2.371-1.031 2.371-2.305v-27.389c0-1.273-1.067-2.305-2.371-2.305z"></path>
</symbol>
<symbol id="icon-skype" viewBox="0 0 32 32">
<path fill="#00aff0" style="fill: var(--color3, #00aff0)" d="M16.092 25.165c-5.364 0-7.76-2.639-7.76-4.619 0-1.020 0.748-1.728 1.777-1.728 2.297 0 1.697 3.303 5.983 3.303 2.188 0 3.4-1.193 3.4-2.415 0-0.735-0.359-1.547-1.805-1.905l-4.768-1.193c-3.84-0.965-4.537-3.048-4.537-5.001 0-4.063 3.815-5.588 7.399-5.588 3.295 0 7.191 1.831 7.191 4.265 0 1.045-0.917 1.653-1.937 1.653-1.959 0-1.597-2.716-5.552-2.716-1.959 0-3.056 0.885-3.056 2.156s1.537 1.677 2.876 1.983l3.516 0.783c3.855 0.865 4.832 3.128 4.832 5.259 0 3.301-2.536 5.765-7.629 5.765zM30.799 18.657l-0.039 0.18-0.059-0.32c0.020 0.060 0.059 0.099 0.079 0.16 0.16-0.9 0.241-1.817 0.241-2.736 0-2.039-0.401-4.016-1.197-5.893-0.759-1.797-1.86-3.416-3.236-4.795-1.399-1.377-2.996-2.475-4.793-3.235-1.757-0.841-3.735-1.24-5.771-1.24-0.96 0-1.925 0.093-2.857 0.272l0.159 0.080-0.319-0.044 0.159-0.033c-1.285-0.688-2.727-1.053-4.191-1.053-2.385 0-4.627 0.931-6.315 2.623-1.688 1.691-2.617 3.941-2.617 6.332 0 1.524 0.389 3.020 1.125 4.344l0.027-0.165 0.055 0.319-0.080-0.153c-0.152 0.86-0.229 1.732-0.229 2.607 0 2.040 0.4 4.023 1.179 5.888 0.757 1.816 1.837 3.435 3.236 4.812 1.379 1.4 2.996 2.476 4.793 3.256 1.859 0.8 3.836 1.197 5.872 1.197 0.879 0 1.779-0.080 2.636-0.239l-0.159-0.083 0.32 0.061-0.18 0.040c1.336 0.759 2.835 1.161 4.392 1.161 2.377 0 4.612-0.92 6.311-2.617 1.679-1.679 2.616-3.935 2.616-6.332 0-1.517-0.399-3.016-1.137-4.355z"></path>
</symbol>
<symbol id="icon-twitter" viewBox="0 0 32 32">
<path fill="#1da1f2" style="fill: var(--color4, #1da1f2)" d="M31.939 6.092c-1.18 0.519-2.44 0.872-3.767 1.033 1.352-0.815 2.392-2.099 2.884-3.631-1.268 0.74-2.673 1.279-4.169 1.579-1.195-1.279-2.897-2.079-4.788-2.079-3.623 0-6.56 2.937-6.56 6.556 0 0.52 0.060 1.020 0.169 1.499-5.453-0.257-10.287-2.876-13.521-6.835-0.569 0.963-0.888 2.081-0.888 3.3 0 2.28 1.16 4.284 2.917 5.461-1.076-0.035-2.088-0.331-2.971-0.821v0.081c0 3.18 2.257 5.832 5.261 6.436-0.551 0.148-1.132 0.228-1.728 0.228-0.419 0-0.82-0.040-1.221-0.115 0.841 2.604 3.26 4.503 6.139 4.556-2.24 1.759-5.079 2.807-8.136 2.807-0.52 0-1.039-0.031-1.56-0.089 2.919 1.859 6.357 2.945 10.076 2.945 12.072 0 18.665-9.995 18.665-18.648 0-0.279 0-0.56-0.020-0.84 1.281-0.919 2.4-2.080 3.28-3.397z"></path>
</symbol>
<symbol id="icon-facebook" viewBox="0 0 32 32">
<path fill="#1877f2" style="fill: var(--color5, #1877f2)" d="M31.997 15.999c0-8.836-7.163-15.999-15.999-15.999s-15.999 7.163-15.999 15.999c0 7.985 5.851 14.604 13.499 15.804v-11.18h-4.062v-4.625h4.062v-3.525c0-4.010 2.389-6.225 6.043-6.225 1.75 0 3.581 0.313 3.581 0.313v3.937h-2.017c-1.987 0-2.607 1.233-2.607 2.498v3.001h4.437l-0.709 4.625h-3.728v11.18c7.649-1.2 13.499-7.819 13.499-15.804z"></path>
</symbol>
<symbol id="icon-keyboard_arrow_down" viewBox="0 0 24 24">
<path d="M7.406 8.578l4.594 4.594 4.594-4.594 1.406 1.406-6 6-6-6z"></path>
</symbol>
<symbol id="icon-world" viewBox="0 0 24 24">
<path d="M12 2c-4.971 0-9 4.029-9 9s4.029 9 9 9 9-4.029 9-9-4.029-9-9-9zM14 4c0 1-0.5 2-1.5 2s-1.5 1-1.5 2 0 3 0 3 1 0 1-3c0-0.553 0.447-1 1-1s1 0.447 1 1v3c-0.552 0-1 0.448-1 1s0.448 1 1 1c0.553 0 1-0.448 1-1h1v-2l1 1-1 1c0 3 0 3-2 4 0-1-1-1-3-1v-2l-2-2v-2c-1 0-1 1-1 1l-2.951-2.951c0.11-0.192 0.225-0.382 0.35-0.564l0.523-0.678c1.468-1.716 3.644-2.807 6.078-2.807 0.691 0 1.359 0.098 2 0.262v0.738z"></path>
</symbol>
</defs>
</svg>
